<svg width="17" height="14" viewBox="0 0 17 14" fill="none" xmlns="http://www.w3.org/2000/svg">
<path d="M7.39111 13.4921C7.65353 13.7302 8.06898 13.7205 8.31896 13.4706C8.56895 13.2207 8.5588 12.825 8.29639 12.5869L2.82639 7.62475H15.7188C16.0812 7.62475 16.375 7.34492 16.375 6.99975C16.375 6.65458 16.0812 6.37475 15.7188 6.37475H2.8263L8.29639 1.41252C8.5588 1.17444 8.56886 0.778833 8.31896 0.528892C8.06898 0.278958 7.65353 0.269333 7.39111 0.507408L0.899566 6.39633C0.751753 6.53042 0.664296 6.70142 0.637189 6.87925C0.629191 6.91825 0.625 6.95858 0.625 6.99975C0.625 7.04108 0.629209 7.08142 0.637232 7.1205C0.664392 7.29825 0.75184 7.46917 0.899566 7.60317L7.39111 13.4921Z" fill="#212121"/>
</svg>
