<svg width="57" height="61" viewBox="0 0 57 61" fill="none" xmlns="http://www.w3.org/2000/svg">
<mask id="mask0_2_26" style="mask-type:alpha" maskUnits="userSpaceOnUse" x="0" y="0" width="57" height="61">
<path d="M56.7761 17.9408L56.8489 43.1167C56.8773 52.8983 49.6012 60.849 40.5975 60.8751C35.8185 60.8889 31.5133 58.6674 28.5211 55.117C25.5495 58.6847 21.2573 60.9311 16.4783 60.9449C7.47453 60.971 0.152584 53.0625 0.124269 43.2809L0.0513914 18.105C0.0230761 8.32339 7.29912 0.37267 16.3029 0.346607C21.0818 0.332773 25.387 2.55426 28.3792 6.10472C31.3508 2.537 35.6431 0.290622 40.422 0.276788C49.4258 0.250725 56.7477 8.15918 56.7761 17.9408Z" fill="white"/>
</mask>
<g mask="url(#mask0_2_26)">
<path fill-rule="evenodd" clip-rule="evenodd" d="M28.3792 6.10472C31.3508 2.537 35.6431 0.290622 40.422 0.276788C49.4258 0.250725 56.7477 8.15919 56.7761 17.9408L56.8489 43.1167C56.8773 52.8983 49.6012 60.849 40.5975 60.8751C35.8185 60.8889 31.5133 58.6675 28.5211 55.117C25.5495 58.6847 21.2573 60.9311 16.4783 60.9449C7.47453 60.971 0.152584 53.0625 0.124269 43.2809L0.0513914 18.105C0.0230761 8.32339 7.29912 0.37267 16.3029 0.346607C21.0818 0.332773 25.387 2.55426 28.3792 6.10472Z" stroke="white" stroke-width="24.1505"/>
</g>
</svg>
